<svg width="256" height="256" viewBox="0 0 256 256" xmlns="http://www.w3.org/2000/svg" role="img" aria-label="Brian portrait">
  <defs>
    <linearGradient id="bg" x1="0" y1="0" x2="1" y2="1">
      <stop offset="0%" stop-color="#103fb8"/>
      <stop offset="57%" stop-color="#8b1f2b"/>
      <stop offset="100%" stop-color="#f0c94b"/>
    </linearGradient>
  </defs>
  <rect width="256" height="256" rx="128" fill="url(#bg)"/>
  <circle cx="192" cy="68" r="55" fill="#ffffff" fill-opacity="0.13"/>
  <circle cx="68" cy="188" r="72" fill="#8b1f2b" fill-opacity="0.12"/>
  <path d="M64 184c11-30 36-48 64-48s53 18 64 48v22H64z" fill="#213a64"/>
  <circle cx="128" cy="102" r="43" fill="#c89b76"/>
  <path d="M82 94c0-32 22-58 46-58s46 26 46 58c-8-7-18-11-30-11H112c-12 0-22 4-30 11z" fill="#28201b"/>
  <path d="M92 88c10-16 25-26 36-26 12 0 27 10 37 26 3 5 5 12 5 18-13-7-24-10-41-10s-28 3-41 10c0-6 2-13 4-18z" fill="#2f211a"/>
  <circle cx="112" cy="99" r="4" fill="#3a2518"/>
  <circle cx="144" cy="99" r="4" fill="#3a2518"/>
  <path d="M114 118c8 6 20 6 28 0" stroke="#8b5d44" stroke-width="4" fill="none" stroke-linecap="round"/>
  <path d="M101 140c6-17 14-25 27-25s21 8 27 25" fill="#160f0c" fill-opacity="0.6"/>
</svg>
