<svg width="256" height="256" viewBox="0 0 256 256" xmlns="http://www.w3.org/2000/svg" role="img" aria-label="Michael portrait">
  <defs>
    <linearGradient id="bg" x1="0" y1="0" x2="1" y2="1">
      <stop offset="0%" stop-color="#8b1f2b"/>
      <stop offset="58%" stop-color="#d8a92d"/>
      <stop offset="100%" stop-color="#103fb8"/>
    </linearGradient>
  </defs>
  <rect width="256" height="256" rx="128" fill="url(#bg)"/>
  <circle cx="196" cy="64" r="54" fill="#ffffff" fill-opacity="0.15"/>
  <circle cx="60" cy="190" r="72" fill="#8b1f2b" fill-opacity="0.12"/>
  <path d="M64 186c11-30 36-49 64-49s53 19 64 49v20H64z" fill="#243a66"/>
  <circle cx="128" cy="104" r="43" fill="#cfa17f"/>
  <path d="M80 91c0-31 25-57 48-57s48 26 48 57c-10-7-21-10-32-10h-32c-11 0-22 3-32 10z" fill="#2a201d"/>
  <path d="M89 90c9-16 25-26 39-26s31 10 39 26c2 5 3 11 3 16-12-6-24-9-42-9s-30 3-42 9c0-5 1-11 3-16z" fill="#3a2a23"/>
  <circle cx="112" cy="101" r="4" fill="#3a2518"/>
  <circle cx="144" cy="101" r="4" fill="#3a2518"/>
  <path d="M114 118c8 6 20 6 28 0" stroke="#8f6246" stroke-width="4" fill="none" stroke-linecap="round"/>
  <path d="M103 139c5-16 13-24 25-24s20 8 25 24" fill="#1c1310" fill-opacity="0.58"/>
</svg>
